<?xml version="1.0" standalone="no"?>
<!DOCTYPE svg PUBLIC "-//W3C//DTD SVG 20010904//EN"
 "http://www.w3.org/TR/2001/REC-SVG-20010904/DTD/svg10.dtd">
<svg version="1.0" xmlns="http://www.w3.org/2000/svg"
 width="700.000000pt" height="700.000000pt" viewBox="0 0 700.000000 700.000000"
 preserveAspectRatio="xMidYMid meet">
<metadata>
Created by potrace 1.11, written by Peter Selinger 2001-2013
</metadata>
<g transform="translate(0.000000,700.000000) scale(0.100000,-0.100000)"
fill="#000000" stroke="none">
<path d="M2830 6765 c-851 -56 -1425 -194 -1623 -391 -31 -31 -69 -82 -84
-113 l-28 -56 -3 -936 -2 -936 -88 -53 c-114 -69 -248 -202 -291 -288 -47 -93
-65 -173 -58 -262 6 -77 34 -174 69 -245 56 -112 178 -229 299 -287 l68 -33 3
-985 3 -985 32 -83 c43 -111 106 -203 203 -296 310 -296 885 -497 1650 -578
168 -18 894 -18 1045 0 583 67 960 166 1307 343 155 79 271 164 371 269 90 95
136 165 176 268 l26 67 3 497 3 497 103 103 c198 197 300 411 328 687 19 195
-21 403 -114 586 -69 135 -170 264 -266 340 l-51 40 -3 1135 -3 1135 -28 56
c-59 122 -200 220 -421 296 -306 104 -799 181 -1375 213 -249 14 -1010 10
-1251 -5z m-1219 -1095 c224 -68 591 -130 974 -165 314 -28 498 -35 915 -35
614 0 1056 33 1500 111 117 21 362 79 413 98 16 6 33 11 38 11 5 0 9 -301 9
-775 0 -467 -4 -775 -9 -775 -5 0 -15 17 -22 38 -20 62 -74 164 -123 230 -369
500 -1302 744 -2166 566 -290 -60 -571 -179 -767 -327 l-72 -54 -138 -6 c-152
-8 -357 -35 -503 -66 -52 -12 -100 -21 -107 -21 -11 0 -13 114 -13 595 0 327
2 595 4 595 2 0 32 -9 67 -20z m2464 -1105 c369 -58 681 -199 842 -379 61 -69
91 -127 104 -203 20 -113 30 -148 54 -179 44 -58 84 -75 215 -90 198 -23 321
-83 444 -215 70 -76 125 -177 150 -275 21 -80 21 -242 1 -319 -79 -306 -355
-510 -669 -493 -174 10 -310 74 -445 209 -135 135 -182 141 -376 45 -322 -160
-711 -240 -1225 -253 -545 -13 -1069 72 -1388 227 -126 60 -223 135 -242 185
-22 57 90 155 278 241 147 69 192 123 192 231 0 69 -25 128 -68 165 -56 47
-102 56 -307 62 -353 10 -494 65 -535 208 -12 41 8 78 69 126 138 109 391 200
701 251 163 27 209 32 415 40 173 7 185 9 228 34 25 15 55 40 67 57 28 39 166
130 271 179 161 74 410 139 616 161 127 13 489 4 608 -15z m-2454 -2339 c229
-106 557 -188 924 -232 215 -26 814 -27 1030 -1 350 42 686 124 891 217 l62
28 73 -55 c113 -85 238 -144 389 -184 89 -24 336 -36 418 -21 l52 9 0 -359 c0
-413 4 -392 -97 -490 -293 -284 -1049 -477 -1868 -478 -885 0 -1725 244 -1927
559 l-28 45 0 498 c0 274 2 498 4 498 2 0 36 -15 77 -34z"/>
<path d="M3665 4195 c-127 -20 -236 -45 -265 -60 -131 -67 -159 -246 -54 -351
72 -72 118 -77 349 -35 202 37 398 23 507 -36 75 -41 135 -132 137 -209 2 -52
30 -117 68 -156 99 -102 261 -86 340 33 56 85 39 256 -42 417 -95 189 -263
320 -491 383 -103 28 -410 36 -549 14z"/>
</g>
</svg>
