<svg xmlns="http://www.w3.org/2000/svg" viewBox="0 0 16 16">
  <g fill="none" fill-rule="evenodd">
    <path fill="#FFF" stroke="#000" stroke-linejoin="round" d="M3 2h10v11.1c-.14 1.06-2.32 1.9-5 1.9-2.76 0-5-.9-5-2h0V2z"/>
    <ellipse cx="8" cy="2" fill="#000" stroke="#000" rx="5" ry="1"/>
    <path fill="#FFF" stroke="#979797" stroke-linejoin="round" d="M8.5 5c1.93 0 3.5.9 3.5 2a2 2 0 11-1.55 3.26c-.7.44-1.98.74-3.45.74-2.2 0-4-.67-4-1.5 0-.23.14-.45.4-.65.17-.14.42-.27.7-.39-.98.02-1.94-.08-2.1-.96C1.85 6.67 3.57 6 5.5 6h-.03c.6-.6 1.73-1 3.03-1z"/>
    <path stroke="#979797" stroke-linecap="round" d="M8 7c2.43-.58 2.43 1 2.43 1"/>
  </g>
</svg>
