<svg xmlns="http://www.w3.org/2000/svg" width="512" height="512" viewBox="0 0 512 512">
  <g fill="none" fill-rule="evenodd">
    <path fill="#000102" d="M251.442211 13.2424381C348.400101 13.2424381 426.317645 27.2640463 426.317645 44.5605764 426.317645 45.1594311 423.87843 81.8059057 419 154.5L418.070785 53.3016831C396.86263 66.3444728 331.393841 75.8787147 251.442211 75.8787147 173.035598 75.8787147 93.5393182 65.9572414 71 53.3016831L67 154.5 56.1471104 44.5605764C57.6974245 27.5029189 155.4539 13.2424381 251.442211 13.2424381zM67 358.242438L67 466.008212C83.6931988 490.164363 143.938341 502.242438 247.735426 502.242438 351.532511 502.242438 408.620703 490.164363 419 466.008212L418.76578 395.19428 418.652778 361.029269C413.552398 420.171954 410.737546 450.258914 410.208222 451.290149 400.782418 469.653607 375.994473 478.835336 245.799327 478.835336 223.117972 478.835336 202.501783 478.045911 183.950761 476.46706 148.990877 473.491675 113.053254 462.720507 76.1378924 444.153557L67 358.242438z"/>
    <g fill="#000" transform="translate(12 116)">
      <path d="M142,23.233577 C70.7304688,10.4453125 55,64 55,64 C55,64 49.4140625,-13.8203125 142,23.233577 Z"/>
      <path d="M97,70.0879637 C11.8673329,47.1320622 31.8501138,132 31.8501138,132 C31.8501138,132 -18.2897062,27.8301953 97,70.0879637 Z"/>
      <path d="M52.4828483,192.757457 C-42.2615996,176.924017 39.1472893,117.127068 39.1472893,117.127068 C39.1472893,117.127068 2.07256888,169.106644 52.4828483,192.757457 Z" transform="rotate(10 29.55 154.942)"/>
      <path d="M343,206.364285 C462.309027,250.634175 416.260984,128 416.260984,128 C416.260984,128 428.572523,242.036591 343,206.364285 Z"/>
      <path d="M407.473541,134.65779 C451.048908,90.377365 407.625617,46.0905496 407.625617,46.0905496 C407.625617,46.0905496 491.962708,89.0567012 407.473541,134.65779 Z" transform="rotate(-16 426.269 90.374)"/>
      <path d="M37.6294632,178.499427 C49.4167367,242.245937 156.778067,219.595063 156.778067,219.595063 C156.778067,219.595063 31.9662434,273.350853 37.6294632,178.499427 Z" transform="rotate(-11 97.11 206.634)"/>
      <path d="M267.277344,55.4231831 C243.863281,-6.2734375 198,45.4592952 198,45.4592952 C198,45.4592952 237.528022,22 267.277344,55.4231831 Z"/>
      <path d="M344,196 C329.592466,122.446327 262,178.320315 262,178.320315 C262,178.320315 318.6923,147.387252 344,196 Z" transform="matrix(1 0 0 -1 0 354)"/>
      <path d="M408.235606,128.055188 C400.501356,94.8901276 367.465407,119.356011 367.465407,119.356011 C367.465407,119.356011 395.30297,105.989673 408.235606,128.055188 Z" transform="rotate(113 387.85 119.36)"/>
      <path d="M369.850902,163.13126 C382.79699,302.823825 214.558361,235.075925 214.558361,235.075925 C214.558361,235.075925 363.894186,264.410989 369.850902,163.13126 Z" transform="rotate(2 292.56 207.316)"/>
      <path d="M398.170869,96 C398.170869,36.9558829 326,44.6546057 326,44.6546057 C326,44.6546057 432.540523,10.7497578 398.170869,96 Z"/>
      <path d="M344,64 C304.597551,19.8390953 262,47.2562875 262,47.2562875 C262,47.2562875 310.426674,-19.473745 344,64 Z"/>
      <path d="M155.658793,85.6398004 C135.449609,67.4194844 114.350975,77.8868645 114.350975,77.8868645 C114.350975,77.8868645 137.982261,51.7146577 155.658793,85.6398004 Z" transform="rotate(-51 135.005 76.946)"/>
      <path d="M228.277589,239.012691 C188.221614,200.008973 146.280954,222.86488 146.280954,222.86488 C146.280954,222.86488 193.315759,166.116404 228.277589,239.012691 Z" transform="scale(1 -1) rotate(-27 -730.83 0)"/>
      <path d="M122,42 C142.823214,24.6948327 159.485435,16.042249 171.986663,16.042249 C184.48789,16.042249 198.825669,22.453887 215,35.2771632 C198.441953,12.7027138 184.426253,0.977736164 172.952899,0.102230352 C172.059758,0.034076784 171.15831,0 170.248554,0 C151.808607,0 135.725755,14 122,42 Z"/>
      <path d="M31.8660819,194.433895 C51.908324,178.932836 68.0631197,171.330065 80.3304691,171.625583 C92.5978185,171.921101 106.812377,178.18562 122.974144,190.419139 C106.21529,169.16459 92.1966098,157.997138 80.9181025,156.916783 C80.0401294,156.832683 79.1547749,156.77988 78.262039,156.758374 C60.1670743,156.32247 44.7017552,168.880977 31.8660819,194.433895 Z" transform="scale(1 -1) rotate(-36 -462.992 0)"/>
    </g>
  </g>
</svg>
