<svg xmlns="http://www.w3.org/2000/svg" width="24" height="24" viewBox="0 0 24 24">
  <g fill="none" fill-rule="evenodd">
    <polygon fill="#000" fill-rule="nonzero" points="10.168 22 10.168 4.383 15.969 4.383 15.969 2 2 2 2 4.383 7.801 4.383 7.801 22"/>
    <path fill="#000" fill-rule="nonzero" d="M18.1302315,22 L18.4533552,21.9945817 L20,21.9481393 L20,18.9684931 C19.8930715,18.9746854 19.7842335,18.9793297 19.6734861,18.9824258 C19.5627387,18.985522 19.4577196,18.9870701 19.3584288,18.9870701 C18.6939444,18.9870701 18.2967812,18.9359835 18.1669394,18.8338102 C18.0370977,18.7316369 17.9721768,18.4731076 17.9721768,18.0582222 L17.9721768,14.7104589 L20,14.7104589 L20,11.8236975 L17.9721768,11.8236975 L17.9721768,9 L14.7414075,9 L14.7414075,11.8236975 L13,11.8236975 L13,14.7104589 L14.7414075,14.7104589 L14.7414075,19.9418279 C14.7414075,20.5734445 14.9247136,21.0409646 15.2913257,21.3443882 C15.8565194,21.8211968 16.9105292,22.037928 18.4533552,21.9945817 L18.1302315,22 Z"/>
  </g>
</svg>
